<svg xmlns="http://www.w3.org/2000/svg" width="64" height="64" viewBox="0 0 64 64"><g transform="translate(2031 -552)"><rect width="64" height="64" transform="translate(-2031 552)" fill="none"/><rect width="64" height="64" rx="16" transform="translate(-2031 552)" fill="#ff4c4a"/><path d="M41.061,41.28,52.5,34.675a3.632,3.632,0,0,0,0-6.29l-10.985-6.62A21.972,21.972,0,0,1,60.971,10q.959,0,1.9.082A15.96,15.96,0,0,1,64,16V48a15.964,15.964,0,0,1-1.108,5.863q-.967.086-1.928.085A21.981,21.981,0,0,1,41.061,41.28Z" transform="translate(-2031 552)" fill="#fff"/><g transform="translate(-2272.278 527.098)"><path d="M274.408,70.042a3.485,3.485,0,0,1-2.113-.711,15.6,15.6,0,0,1,0-24.861,3.5,3.5,0,1,1,4.229,5.578,8.6,8.6,0,0,0,0,13.7,3.5,3.5,0,0,1-2.118,6.289Z" fill="#fff"/><path d="M265.845,82.268a3.488,3.488,0,0,1-1.367-.28c-8.948-3.8-14.96-13.884-14.96-25.087s6.011-21.282,14.959-25.087a3.5,3.5,0,0,1,2.739,6.442c-6.4,2.721-10.7,10.214-10.7,18.645s4.3,15.926,10.7,18.645a3.5,3.5,0,0,1-1.37,6.722Z" fill="#fff"/></g></g></svg>