<svg xmlns="http://www.w3.org/2000/svg" viewBox="0 0 137.48 137.48"><defs><style>.cls-1{fill:#fff;}.cls-2{fill:#2e2e2e;}.cls-3{fill:#53b3ff;}</style></defs><g id="レイヤー_2" data-name="レイヤー 2"><g id="ヘルパー"><circle class="cls-1" cx="68.74" cy="68.74" r="68.74"/><path class="cls-2" d="M104.24,86.55v28.08a4.67,4.67,0,0,1-2.52,4.52,4.34,4.34,0,0,1-4.82-.42,4.74,4.74,0,0,1-1.76-4.19q0-15.41,0-30.81c0-.43,0-.85,0-1.28s.2-1.16-.68-1.2-.76.58-.77,1.11,0,.86,0,1.28c0,10.39,0,20.79,0,31.18,0,3.71-3.32,5.9-6.48,4.37a4.48,4.48,0,0,1-2.56-3.74,19.26,19.26,0,0,1,0-2V57.65c0-.5,0-1-.74-1s-.79.4-.78.93,0,.85,0,1.28c0,6.26,0,12.52,0,18.78,0,2.91-2.24,4.66-4.62,3.72a3.42,3.42,0,0,1-2.23-3.45c0-8.63-.12-17.26,0-25.89.08-4.25,4.06-7.86,8.35-7.89q9.8-.07,19.58,0a8.58,8.58,0,0,1,8.47,8.17c.1,8.45.05,16.9,0,25.34,0,2.39-1.45,4-3.4,4s-3.46-1.62-3.47-4.1c0-6.26,0-12.52,0-18.78V57.5c0-.47-.1-.82-.69-.84s-.83.34-.83.9,0,.85,0,1.28Z"/><path class="cls-2" d="M63.05,62.35c2.17,0,4.12,0,6.06,0a3.44,3.44,0,0,1,3.66,3.28,3.38,3.38,0,0,1-3.47,3.47c-3.16.1-6.32.1-9.48,0a4,4,0,0,1-4.13-3.62c-.49-2.5-.84-5-1.2-7.56-.1-.71-.31-1.19-.86-1.24a.92.92,0,0,0-1,.95v1.53q0,27.36,0,54.71c0,1.74,0,3.47-1.5,4.7a4.37,4.37,0,0,1-4.77.73,4.2,4.2,0,0,1-2.65-4.19c0-5.48,0-10.95,0-16.42V81.39l-.54-.31a4.58,4.58,0,0,0-.89,1.1,3.53,3.53,0,0,0,0,1.26q0,15.33,0,30.64a8.65,8.65,0,0,1-.22,2.34,4.41,4.41,0,0,1-4.52,3.25,4.5,4.5,0,0,1-4.18-3.7,13.24,13.24,0,0,1-.13-2.36V59.08a5.37,5.37,0,0,0,0-1.45h0a.76.76,0,0,0-1.45,0v0a4.07,4.07,0,0,0,0,1.26q0,9.21,0,18.42c0,1.65-.25,3.16-2.09,4a3.22,3.22,0,0,1-4.39-1.73A7.61,7.61,0,0,1,24.81,77q0-11.94,0-23.89c0-5.65,4-9.35,9.88-9a101.54,101.54,0,0,0,14.8,0c6.84-.56,10.58,2.08,11.74,8.33Z"/><circle class="cls-2" cx="44.81" cy="33.68" r="8.52"/><circle class="cls-2" cx="94.41" cy="33.68" r="8.52"/><path class="cls-3" d="M76.82,25.11v1.76c0,.13-.06.25-.08.38a8,8,0,0,1-1.1,3.17,8.37,8.37,0,0,1-4.42,3.36,15.12,15.12,0,0,1-5.33.94,7.19,7.19,0,0,0-3.83,1.09c-1.23.76-2.49,1.47-3.74,2.21-.14.08-.28.18-.44.06s-.09-.28-.06-.44c.26-1.08.5-2.16.76-3.24a.53.53,0,0,0-.25-.69,8.36,8.36,0,0,1-1.89-1.62,8.6,8.6,0,0,1-2.1-5.9A7.76,7.76,0,0,1,58.53,19a12.72,12.72,0,0,1,5.38-1.59,15.4,15.4,0,0,1,8.23,1.26A8.12,8.12,0,0,1,76.26,23C76.54,23.69,76.6,24.42,76.82,25.11Z"/></g></g></svg>