<svg xmlns="http://www.w3.org/2000/svg" xmlns:xlink="http://www.w3.org/1999/xlink" viewBox="0 0 137.48 137.48"><defs><style>.cls-1,.cls-5{fill:none;}.cls-2{fill:#fff;}.cls-3{clip-path:url(#clip-path);}.cls-4{fill:#ff4c4a;}.cls-5{stroke:#ff4c4a;stroke-linecap:round;stroke-linejoin:round;stroke-width:3px;}</style><clipPath id="clip-path"><rect id="SVGID" class="cls-1" x="68.17" y="51.05" width="33.71" height="35.37"/></clipPath></defs><g id="レイヤー_2" data-name="レイヤー 2"><g id="レイヤー_2-2" data-name="レイヤー 2"><circle class="cls-2" cx="68.74" cy="68.74" r="68.74"/><g class="cls-3"><path class="cls-4" d="M84.19,51.05a17.7,17.7,0,0,0-15.66,9.47l8.85,5.33a2.93,2.93,0,0,1,1.07,4,2.89,2.89,0,0,1-1.07,1.07l-9.21,5.32a17.68,17.68,0,1,0,16-25.18"/></g><path class="cls-5" d="M59.36,56.92a13.65,13.65,0,0,0,0,23.64"/><path class="cls-5" d="M55.27,49.43a20.48,20.48,0,0,0,0,38.62"/><path class="cls-5" d="M51.17,42.3a27.31,27.31,0,0,0,0,52.88"/></g></g></svg>