<svg xmlns="http://www.w3.org/2000/svg" width="197.188" height="60.874" viewBox="0 0 197.188 60.874"><g transform="translate(-8.002 -7.563)"><g transform="translate(10.002 10)"><path d="M265.337,96.328a1.759,1.759,0,0,1-.412,1.149,1.6,1.6,0,0,1-1.062.585q-1.39.176-3.4.325t-4.293.239q-2.276.089-4.509.152t-4.1.065a14.523,14.523,0,0,1-4.553-.737,5.542,5.542,0,0,1-3.057-2.494,9.327,9.327,0,0,1-.932-5.1V69.779a1.6,1.6,0,0,1,.5-1.214,1.68,1.68,0,0,1,2.883,1.214v9.238c0,.26.13.377.39.347a68.791,68.791,0,0,0,9.366-1.388c3-.664,6.04-.982,9.106-2.255a1.76,1.76,0,0,1,.607-.13,1.665,1.665,0,0,1,1.648,1.691,1.9,1.9,0,0,1-.3,1.041,1.735,1.735,0,0,1-.867.694c-3.035,1.158-6.187,1.453-9.453,2.19a73.5,73.5,0,0,1-10.1,1.54.392.392,0,0,0-.39.434V90.51a7.4,7.4,0,0,0,.455,3.231,2.422,2.422,0,0,0,1.648,1.323,15.075,15.075,0,0,0,3.1.39c.317.03.65.043,1.019.043h1.149q2.081,0,4.6-.108t4.943-.282q2.426-.171,4.163-.434a1.652,1.652,0,0,1,1.3.39,1.57,1.57,0,0,1,.564,1.264Z" transform="translate(-189.348 -55.47)"/><path d="M428.21,82.728a1.716,1.716,0,0,1,.52,1.258,2.058,2.058,0,0,1-.477,1.3,1.539,1.539,0,0,1-1.127.477,1.491,1.491,0,0,1-1.084-.477,25.1,25.1,0,0,0-5.7-4.12,17.993,17.993,0,0,0-6.482-2.342h-.087a.308.308,0,0,0-.347.347v15.4a1.627,1.627,0,0,1-.5,1.193,1.678,1.678,0,0,1-1.236.5,1.7,1.7,0,0,1-1.691-1.7v-29.4a1.685,1.685,0,0,1,.5-1.236,1.63,1.63,0,0,1,1.192-.5,1.7,1.7,0,0,1,1.734,1.735v9.882a.434.434,0,0,0,.39.434,19.642,19.642,0,0,1,5.377,1.475,26.017,26.017,0,0,1,4.835,2.732A27.109,27.109,0,0,1,428.21,82.728Z" transform="translate(-323.267 -51.845)"/><path d="M787.485,107.361a1.457,1.457,0,0,1,1.062.542,1.708,1.708,0,0,1,.412,1.106,1.548,1.548,0,0,1-.542,1.214,1.706,1.706,0,0,1-1.279.434c-2.2-.173-4.466-.043-6.808-.043-2.92,0-5.4.154-8.932.217-3.035.054-6.07,0-9.106,0q-2.647,0-5.333-.13a1.624,1.624,0,0,1-1.106-.52,1.576,1.576,0,0,1-.455-1.127,1.546,1.546,0,0,1,.542-1.214,1.656,1.656,0,0,1,1.236-.434q2.426.13,4.943.13,1.995,0,4.032-.065t4.033-.108c.288,0,.4-.13.347-.39q-.13-2.036-.173-4.336t-.043-4.553q0-1.646.022-3.122t.065-2.732a.345.345,0,0,0-.39-.39q-3.035.13-5.9.13-.956,0-1.886-.022t-1.8-.065a1.632,1.632,0,0,1-1.518-1.6,1.678,1.678,0,0,1,.542-1.257,1.455,1.455,0,0,1,1.236-.434q1,.046,1.995.065c.663.015,1.344.022,2.038.022,2.63,0,5.316.056,8.065,0,3.126-.063,5.333,0,7.761,0,.577,0,1.14,0,1.691.022s1.069.037,1.561.065.846,0,1.149.325a1.179,1.179,0,0,1,.455.932,1.668,1.668,0,0,1-.477,1.192,1.472,1.472,0,0,1-1.214.455c-.377-.028-.78-.043-1.214-.043h-1.344q-1.607,0-3.36.043l-3.621.087a.345.345,0,0,0-.39.39q-.046,1.216-.065,2.688t-.022,3.079q0,2.257.043,4.6t.173,4.336a.462.462,0,0,0,.477.39,27.531,27.531,0,0,0,3.3.13q1.645-.041,3.209-.043C783.205,107.311,785.4,107.188,787.485,107.361Z" transform="translate(-593.772 -71.535)"/><path d="M123.9,81.39a14.458,14.458,0,0,0,0,25.038" transform="translate(-93.546 -65.909)" fill="none" stroke="#53b3ff" stroke-linecap="round" stroke-miterlimit="10" stroke-width="4"/><path d="M77.722,44.82a21.685,21.685,0,0,0,0,40.9" transform="translate(-51.707 -37.271)" fill="none" stroke="#53b3ff" stroke-linecap="round" stroke-miterlimit="10" stroke-width="4"/><path d="M31.682,10a28.921,28.921,0,0,0,0,56" transform="translate(-10.002 -10)" fill="none" stroke="#53b3ff" stroke-linecap="round" stroke-miterlimit="10" stroke-width="4"/><path d="M568.916,61.57a17.344,17.344,0,0,0-15.358,9.287l8.672,5.226a2.866,2.866,0,0,1,0,4.965l-9.03,5.214A17.344,17.344,0,1,0,568.916,61.57Z" transform="translate(-435.417 -50.386)" fill="#ff4c4a"/></g></g></svg>