<svg xmlns="http://www.w3.org/2000/svg" xmlns:xlink="http://www.w3.org/1999/xlink" viewBox="0 0 137.3 137.3"><defs><style>.cls-1,.cls-4,.cls-7{fill:none;}.cls-2{fill:#fff;}.cls-3{fill:#2e2e2e;}.cls-4{stroke:#2e2e2e;stroke-width:15.5px;}.cls-4,.cls-7{stroke-linecap:round;stroke-linejoin:round;}.cls-5{fill:#ff4c4a;}.cls-6{clip-path:url(#clip-path);}.cls-7{stroke:#fff;}</style><clipPath id="clip-path"><rect class="cls-1" x="30.85" y="50.47" width="11.53" height="12.1"/></clipPath></defs><g id="レイヤー_2" data-name="レイヤー 2"><g id="利用者"><path class="cls-2" d="M123.35,104.4c0-1.26-.75-1.78-2-1.76s-2.1.24-2.2,1.56c-.13,1.75-.21,3.5-.21,5.25v5.9c1.56-1.69,3.05-3.45,4.44-5.29v-2.15C123.4,106.74,123.38,105.57,123.35,104.4Z"/><path class="cls-2" d="M72.88,105c0-1.56-2.31-2.5-3.74-1.4-.68.54-10.86,7.17-17.53,10.66-3.26,1.71-10.36-4.73-8.5-8.77.43-.93-1.81,2.74,9.44-13.72,6.4-9.36,9.76-18.53,20.67-18.56q22.77,0,45.55,0a20.66,20.66,0,0,1,17.15,9.18,68.66,68.66,0,1,0-67.27,54.9c1.45,0,2.89-.05,4.32-.14V109.37C73,107.92,72.92,106.46,72.88,105Z"/><path class="cls-3" d="M118.77,73.22q-22.77-.06-45.55,0c-10.91,0-14.27,9.2-20.67,18.56-11.25,16.46-9,12.79-9.44,13.72-1.86,4,5.24,10.48,8.5,8.77,6.67-3.49,16.85-10.12,17.53-10.66,1.43-1.1,3.7-.16,3.74,1.4s.09,2.92.09,4.37v27.79a68.48,68.48,0,0,0,46-21.81v-5.9c0-1.75.08-3.5.21-5.25.1-1.32,1.08-1.55,2.2-1.56s1.94.5,2,1.76.05,2.34.05,3.51v2.15A68.3,68.3,0,0,0,135.92,82.4,20.66,20.66,0,0,0,118.77,73.22Z"/><circle class="cls-3" cx="95.5" cy="48.43" r="18.84"/><line class="cls-4" x1="47.05" y1="107.84" x2="33.53" y2="84.87"/><circle class="cls-5" cx="30.02" cy="56.86" r="16.31"/><g class="cls-6"><path class="cls-2" d="M36.33,50.47A6,6,0,0,0,31,53.7l3,1.83a1,1,0,0,1,.37,1.36,1.09,1.09,0,0,1-.37.37l-3.15,1.82a6.05,6.05,0,1,0,5.48-8.61"/></g><path class="cls-7" d="M27.84,52.47a4.67,4.67,0,0,0,0,8.09"/><path class="cls-7" d="M26.44,49.91a7,7,0,0,0,0,13.21"/><path class="cls-7" d="M25,47.47a9.34,9.34,0,0,0,0,18.09"/></g></g></svg>
